<svg xmlns="http://www.w3.org/2000/svg" xmlns:xlink="http://www.w3.org/1999/xlink" width="500" zoomAndPan="magnify" viewBox="0 0 375 374.999991" height="500" preserveAspectRatio="xMidYMid meet" version="1.0"><defs><g/></defs><path stroke-linecap="butt" transform="matrix(1.146961, 0, 0, 1.146961, 32.512466, -59.860837)" fill="none" stroke-linejoin="miter" d="M 10.9488 167.148137 C 10.9488 138.699999 18.785406 117.138265 34.458617 102.459529 C 50.169291 87.739925 72.483694 80.380123 101.408636 80.380123 C 130.330172 80.380123 152.668415 87.780794 168.416552 102.57873 C 184.208964 117.335797 192.103467 138.860068 192.103467 167.148137 C 192.103467 185.992092 188.551282 201.88327 181.450316 214.818267 C 174.390218 227.712395 164.115104 237.490272 150.624971 244.155304 L 188.891855 282.956889 L 124.795846 282.956889 L 98.966721 253.916152 C 70.678652 253.439348 48.939819 245.841144 33.743412 231.12154 C 18.547004 216.405342 10.9488 195.078603 10.9488 167.148137 Z M 136.995203 159.3524 C 136.995203 147.490211 133.940255 138.066531 127.830359 131.084766 C 121.761332 124.099595 112.954091 120.608713 101.408636 120.608713 C 89.86318 120.608713 81.076373 124.099595 75.044809 131.084766 C 69.054114 138.066531 66.057064 147.490211 66.057064 159.3524 L 66.057064 174.943874 C 66.057064 186.806063 69.054114 196.229743 75.044809 203.211508 C 81.076373 210.193273 89.86318 213.687562 101.408636 213.687562 C 112.954091 213.687562 121.761332 210.193273 127.830359 203.211508 C 133.940255 196.229743 136.995203 186.806063 136.995203 174.943874 Z M 136.995203 159.3524 " stroke="#c39346" stroke-width="9.1413" stroke-opacity="1" stroke-miterlimit="4"/><g fill="#653a56" fill-opacity="1"><g transform="translate(109.571892, 330.013983)"><g><path d="M 12.578125 -96.171875 C 12.578125 -128.785156 21.570312 -153.523438 39.5625 -170.390625 C 57.550781 -187.265625 83.128906 -195.703125 116.296875 -195.703125 C 149.472656 -195.703125 175.101562 -187.222656 193.1875 -170.265625 C 211.269531 -153.304688 220.3125 -128.609375 220.3125 -96.171875 C 220.3125 -74.554688 216.253906 -56.335938 208.140625 -41.515625 C 200.035156 -26.703125 188.25 -15.472656 172.78125 -7.828125 L 216.671875 36.625 L 143.140625 36.625 L 113.515625 3.359375 C 81.078125 2.796875 56.144531 -5.914062 38.71875 -22.78125 C 21.289062 -39.65625 12.578125 -64.117188 12.578125 -96.171875 Z M 157.125 -105.125 C 157.125 -118.726562 153.628906 -129.535156 146.640625 -137.546875 C 139.648438 -145.566406 129.535156 -149.578125 116.296875 -149.578125 C 103.066406 -149.578125 93.003906 -145.566406 86.109375 -137.546875 C 79.210938 -129.535156 75.765625 -118.726562 75.765625 -105.125 L 75.765625 -87.234375 C 75.765625 -73.617188 79.210938 -62.804688 86.109375 -54.796875 C 93.003906 -46.785156 103.066406 -42.78125 116.296875 -42.78125 C 129.535156 -42.78125 139.648438 -46.785156 146.640625 -54.796875 C 153.628906 -62.804688 157.125 -73.617188 157.125 -87.234375 Z M 157.125 -105.125 "/></g></g></g></svg>