<svg xmlns="http://www.w3.org/2000/svg" xmlns:xlink="http://www.w3.org/1999/xlink" width="500" zoomAndPan="magnify" viewBox="0 0 375 374.999991" height="500" preserveAspectRatio="xMidYMid meet" version="1.0"><defs><g/></defs><path stroke-linecap="butt" transform="matrix(0.75, 0, 0, 0.75, 86.155136, 25.750311)" fill="none" stroke-linejoin="miter" d="M 10.949402 167.14543 C 10.949402 138.70272 18.787944 117.140218 34.45982 102.457926 C 50.168155 87.739175 72.485865 80.379799 101.407741 80.379799 C 130.329618 80.379799 152.668161 87.780841 168.418162 102.577717 C 184.20983 117.338135 192.105664 138.85897 192.105664 167.14543 C 192.105664 185.994389 188.55358 201.885015 181.449413 214.817308 C 174.386913 227.713142 164.116079 237.489184 150.626495 244.155852 L 188.892122 282.957937 L 124.798368 282.957937 L 98.970241 253.916269 C 70.678573 253.44231 48.938988 245.843352 33.74107 231.124601 C 18.548361 216.40585 10.949402 195.077723 10.949402 167.14543 Z M 136.996285 159.353763 C 136.996285 147.489179 133.938994 138.067303 127.829618 131.082927 C 121.761909 124.10376 112.954617 120.608968 101.407741 120.608968 C 89.860866 120.608968 81.074407 124.10376 75.043156 131.082927 C 69.053573 138.067303 66.058781 147.489179 66.058781 159.353763 L 66.058781 174.942305 C 66.058781 186.806889 69.053573 196.228765 75.043156 203.213141 C 81.074407 210.192308 89.860866 213.6871 101.407741 213.6871 C 112.954617 213.6871 121.761909 210.192308 127.829618 203.213141 C 133.938994 196.228765 136.996285 186.806889 136.996285 174.942305 Z M 136.996285 159.353763 " stroke="#c39346" stroke-width="9.1413" stroke-opacity="1" stroke-miterlimit="4"/><g fill="#653a56" fill-opacity="1"><g transform="translate(136.544439, 280.690123)"><g><path d="M 8.21875 -62.890625 C 8.21875 -84.210938 14.097656 -100.390625 25.859375 -111.421875 C 37.628906 -122.453125 54.359375 -127.96875 76.046875 -127.96875 C 97.742188 -127.96875 114.503906 -122.421875 126.328125 -111.328125 C 138.148438 -100.242188 144.0625 -84.097656 144.0625 -62.890625 C 144.0625 -48.753906 141.410156 -36.835938 136.109375 -27.140625 C 130.804688 -17.453125 123.097656 -10.113281 112.984375 -5.125 L 141.671875 23.953125 L 93.59375 23.953125 L 74.21875 2.1875 C 53.007812 1.820312 36.707031 -3.867188 25.3125 -14.890625 C 13.914062 -25.921875 8.21875 -41.921875 8.21875 -62.890625 Z M 102.734375 -68.734375 C 102.734375 -77.628906 100.445312 -84.695312 95.875 -89.9375 C 91.3125 -95.175781 84.703125 -97.796875 76.046875 -97.796875 C 67.390625 -97.796875 60.804688 -95.175781 56.296875 -89.9375 C 51.796875 -84.695312 49.546875 -77.628906 49.546875 -68.734375 L 49.546875 -57.03125 C 49.546875 -48.132812 51.796875 -41.066406 56.296875 -35.828125 C 60.804688 -30.585938 67.390625 -27.96875 76.046875 -27.96875 C 84.703125 -27.96875 91.3125 -30.585938 95.875 -35.828125 C 100.445312 -41.066406 102.734375 -48.132812 102.734375 -57.03125 Z M 102.734375 -68.734375 "/></g></g></g></svg>